ffmpeg started on 2025-06-19 at 09:55:25
Report written to "D:\Convert\FFMetrics\reports\ssim_report-6.txt"
Log level: 32
Command line:
ffmpeg -hide_banner -nostdin -i "G:\\\xc0\xed\xe8\xec\xe5\\[\xd2\xee\xef-4]\\Fate\\\xc4\xee\xef\xee\xeb\xed\xe5\xed\xe8\xe5 - \xcf\xee\xf1\xeb\xe5\xe4\xed\xe8\xe9 \xe2\xfb\xe7\xee\xe2 \xed\xe0 \xe1\xe8\xf1\\Fate_Extra_Last_Encore_[13]_[AniLibria_TV]_[HDTV-Rip_720p]_HEVC.mkv" -i "G:\\\xc0\xed\xe8\xec\xe5\\[\xd2\xee\xef-4]\\Fate\\\xc4\xee\xef\xee\xeb\xed\xe5\xed\xe8\xe5 - \xcf\xee\xf1\xeb\xe5\xe4\xed\xe8\xe9 \xe2\xfb\xe7\xee\xe2 \xed\xe0 \xe1\xe8\xf1\\Fate_Extra_Last_Encore_[13]_[AniLibria_TV]_[HDTV-Rip_720p].mkv" -lavfi "[0:v]settb=AVTB,setpts=PTS-STARTPTS,format=pix_fmts=yuv420p10,fps=24000/1001,scale=1280:720:flags=bicubic[main];[1:v]settb=AVTB,setpts=PTS-STARTPTS,format=pix_fmts=yuv420p,fps=24000/1001,scale=1280:720:flags=bicubic[ref];[main][ref]ssim=eof_action=endall:stats_file='D\\:/Convert/FFMetrics/logs/ssim_logfile-6.txt'" -f null -
Input #0, matroska,webm, from 'G:\Аниме\[Топ-4]\Fate\Дополнение - Последний вызов на бис\Fate_Extra_Last_Encore_[13]_[AniLibria_TV]_[HDTV-Rip_720p]_HEVC.mkv':
  Metadata:
    ENCODER         : Lavf61.7.100
  Duration: 00:48:00.21, start: -0.021000, bitrate: 1118 kb/s
  Stream #0:0(jpn): Video: hevc (Main 10), yuv420p10le(tv, bt709, progressive), 1280x720 [SAR 1:1 DAR 16:9], 23.81 fps, 23.81 tbr, 1k tbn (default)
      Metadata:
        ENCODER         : Lavc61.19.100 libx265
        BPS             : 919810
        DURATION        : 00:48:00.108000000
        NUMBER_OF_FRAMES: 69049
        NUMBER_OF_BYTES : 331144240
        _STATISTICS_WRITING_APP: mkvpropedit v66.0.0 ('Josie') 64-bit
        _STATISTICS_WRITING_DATE_UTC: 2025-06-17 14:10:09
        _STATISTICS_TAGS: BPS DURATION NUMBER_OF_FRAMES NUMBER_OF_BYTES
  Stream #0:1(rus): Audio: aac (LC), 48000 Hz, stereo, fltp (default) (forced)
      Metadata:
        title           : Ados Amikiri Anzen Hekomi Silv
        ENCODER         : Lavc61.19.100 aac
        BPS             : 194079
        DURATION        : 00:48:00.192000000
        NUMBER_OF_FRAMES: 135010
        NUMBER_OF_BYTES : 69873180
        _STATISTICS_WRITING_APP: mkvpropedit v66.0.0 ('Josie') 64-bit
        _STATISTICS_WRITING_DATE_UTC: 2025-06-17 14:10:09
        _STATISTICS_TAGS: BPS DURATION NUMBER_OF_FRAMES NUMBER_OF_BYTES
  Stream #0:2(rus): Subtitle: ass (ssa)
      Metadata:
        title           : Полные
        BPS             : 109
        DURATION        : 00:47:07.870000000
        NUMBER_OF_FRAMES: 372
        NUMBER_OF_BYTES : 38622
        _STATISTICS_WRITING_APP: mkvpropedit v66.0.0 ('Josie') 64-bit
        _STATISTICS_WRITING_DATE_UTC: 2025-06-17 14:10:09
        _STATISTICS_TAGS: BPS DURATION NUMBER_OF_FRAMES NUMBER_OF_BYTES
Input #1, matroska,webm, from 'G:\Аниме\[Топ-4]\Fate\Дополнение - Последний вызов на бис\Fate_Extra_Last_Encore_[13]_[AniLibria_TV]_[HDTV-Rip_720p].mkv':
  Metadata:
    encoder         : libebml v1.4.2 + libmatroska v1.6.4
    creation_time   : 2024-12-27T10:00:55.000000Z
  Duration: 00:48:00.19, start: 0.000000, bitrate: 2446 kb/s
  Stream #1:0(jpn): Video: h264 (Main), yuv420p(tv, bt709, progressive), 1280x720, SAR 1:1 DAR 16:9, 23.81 fps, 23.81 tbr, 1k tbn (default)
      Metadata:
        BPS             : 2251706
        DURATION        : 00:48:00.109000000
        NUMBER_OF_FRAMES: 69049
        NUMBER_OF_BYTES : 810645182
        _STATISTICS_WRITING_APP: mkvmerge v66.0.0 ('Josie') 64-bit
        _STATISTICS_WRITING_DATE_UTC: 2024-12-27 10:00:55
        _STATISTICS_TAGS: BPS DURATION NUMBER_OF_FRAMES NUMBER_OF_BYTES
  Stream #1:1(rus): Audio: aac (LC), 48000 Hz, stereo, fltp (default) (forced)
      Metadata:
        title           : Ados Amikiri Anzen Hekomi Silv
        BPS             : 192093
        DURATION        : 00:48:00.192000000
        NUMBER_OF_FRAMES: 135009
        NUMBER_OF_BYTES : 69158167
        _STATISTICS_WRITING_APP: mkvmerge v66.0.0 ('Josie') 64-bit
        _STATISTICS_WRITING_DATE_UTC: 2024-12-27 10:00:55
        _STATISTICS_TAGS: BPS DURATION NUMBER_OF_FRAMES NUMBER_OF_BYTES
  Stream #1:2(rus): Subtitle: ass (ssa)
      Metadata:
        title           : Полные
        BPS             : 109
        DURATION        : 00:47:07.870000000
        NUMBER_OF_FRAMES: 372
        NUMBER_OF_BYTES : 38622
        _STATISTICS_WRITING_APP: mkvmerge v66.0.0 ('Josie') 64-bit
        _STATISTICS_WRITING_DATE_UTC: 2024-12-27 10:00:55
        _STATISTICS_TAGS: BPS DURATION NUMBER_OF_FRAMES NUMBER_OF_BYTES
Stream mapping:
  Stream #0:0 (hevc) -> settb:default
  Stream #1:0 (h264) -> settb:default
  ssim:default -> Stream #0:0 (wrapped_avframe)
  Stream #0:1 -> #0:1 (aac (native) -> pcm_s16le (native))
Output #0, null, to 'pipe:':
  Metadata:
    encoder         : Lavf61.7.100
  Stream #0:0: Video: wrapped_avframe, yuv420p10le(tv, bt709, progressive), 1280x720 [SAR 1:1 DAR 16:9], q=2-31, 200 kb/s, 23.98 fps, 23.98 tbn
      Metadata:
        encoder         : Lavc61.19.100 wrapped_avframe
  Stream #0:1(rus): Audio: pcm_s16le, 48000 Hz, stereo, s16, 1536 kb/s (default) (forced)
      Metadata:
        title           : Ados Amikiri Anzen Hekomi Silv
        _STATISTICS_TAGS: BPS DURATION NUMBER_OF_FRAMES NUMBER_OF_BYTES
        BPS             : 194079
        DURATION        : 00:48:00.192000000
        NUMBER_OF_FRAMES: 135010
        NUMBER_OF_BYTES : 69873180
        _STATISTICS_WRITING_APP: mkvpropedit v66.0.0 ('Josie') 64-bit
        _STATISTICS_WRITING_DATE_UTC: 2025-06-17 14:10:09
        encoder         : Lavc61.19.100 pcm_s16le
frame=  377 fps=0.0 q=-0.0 size=N/A time=00:00:15.72 bitrate=N/A speed=29.8x    frame=  859 fps=829 q=-0.0 size=N/A time=00:00:35.82 bitrate=N/A speed=34.6x    frame= 1363 fps=879 q=-0.0 size=N/A time=00:00:56.84 bitrate=N/A speed=36.7x    frame= 1880 fps=912 q=-0.0 size=N/A time=00:01:18.41 bitrate=N/A speed=  38x    frame= 2265 fps=877 q=-0.0 size=N/A time=00:01:34.46 bitrate=N/A speed=36.6x    frame= 2554 fps=824 q=-0.0 size=N/A time=00:01:46.52 bitrate=N/A speed=34.4x    frame= 2867 fps=794 q=-0.0 size=N/A time=00:01:59.57 bitrate=N/A speed=33.1x    frame= 3208 fps=775 q=-0.0 size=N/A time=00:02:13.80 bitrate=N/A speed=32.3x    frame= 3667 fps=789 q=-0.0 size=N/A time=00:02:32.94 bitrate=N/A speed=32.9x    frame= 4050 fps=785 q=-0.0 size=N/A time=00:02:48.91 bitrate=N/A speed=32.7x    frame= 4664 fps=821 q=-0.0 size=N/A time=00:03:14.52 bitrate=N/A speed=34.2x    frame= 5095 fps=823 q=-0.0 size=N/A time=00:03:32.50 bitrate=N/A speed=34.3x    frame= 5600 fps=834 q=-0.0 size=N/A time=00:03:53.56 bitrate=N/A speed=34.8x    frame= 6041 fps=837 q=-0.0 size=N/A time=00:04:11.96 bitrate=N/A speed=34.9x    frame= 6543 fps=845 q=-0.0 size=N/A time=00:04:32.89 bitrate=N/A speed=35.2x    frame= 6786 fps=822 q=-0.0 size=N/A time=00:04:43.03 bitrate=N/A speed=34.3x    frame= 7227 fps=824 q=-0.0 size=N/A time=00:05:01.42 bitrate=N/A speed=34.4x    frame= 7719 fps=831 q=-0.0 size=N/A time=00:05:21.94 bitrate=N/A speed=34.6x    frame= 8130 fps=829 q=-0.0 size=N/A time=00:05:39.13 bitrate=N/A speed=34.6x    frame= 8577 fps=831 q=-0.0 size=N/A time=00:05:57.73 bitrate=N/A speed=34.7x    frame= 9049 fps=835 q=-0.0 size=N/A time=00:06:17.41 bitrate=N/A speed=34.8x    frame= 9512 fps=838 q=-0.0 size=N/A time=00:06:36.72 bitrate=N/A speed=  35x    frame=10058 fps=847 q=-0.0 size=N/A time=00:06:59.50 bitrate=N/A speed=35.3x    frame=10549 fps=852 q=-0.0 size=N/A time=00:07:19.98 bitrate=N/A speed=35.5x    frame=11074 fps=859 q=-0.0 size=N/A time=00:07:41.87 bitrate=N/A speed=35.8x    frame=11567 fps=862 q=-0.0 size=N/A time=00:08:02.44 bitrate=N/A speed=  36x    frame=11879 fps=853 q=-0.0 size=N/A time=00:08:15.45 bitrate=N/A speed=35.6x    frame=12337 fps=854 q=-0.0 size=N/A time=00:08:34.55 bitrate=N/A speed=35.6x    frame=12712 fps=850 q=-0.0 size=N/A time=00:08:50.19 bitrate=N/A speed=35.4x    frame=13107 fps=847 q=-0.0 size=N/A time=00:09:06.67 bitrate=N/A speed=35.3x    frame=13334 fps=834 q=-0.0 size=N/A time=00:09:16.13 bitrate=N/A speed=34.8x    frame=13605 fps=824 q=-0.0 size=N/A time=00:09:27.44 bitrate=N/A speed=34.4x    frame=13831 fps=813 q=-0.0 size=N/A time=00:09:36.86 bitrate=N/A speed=33.9x    frame=14072 fps=803 q=-0.0 size=N/A time=00:09:46.91 bitrate=N/A speed=33.5x    frame=14302 fps=792 q=-0.0 size=N/A time=00:09:56.51 bitrate=N/A speed=  33x    frame=14478 fps=780 q=-0.0 size=N/A time=00:10:03.85 bitrate=N/A speed=32.5x    frame=14662 fps=768 q=-0.0 size=N/A time=00:10:11.52 bitrate=N/A speed=  32x    frame=14966 fps=763 q=-0.0 size=N/A time=00:10:24.20 bitrate=N/A speed=31.8x    frame=15483 fps=770 q=-0.0 size=N/A time=00:10:45.77 bitrate=N/A speed=32.1x    frame=15832 fps=768 q=-0.0 size=N/A time=00:11:00.32 bitrate=N/A speed=  32x    frame=16181 fps=765 q=-0.0 size=N/A time=00:11:14.88 bitrate=N/A speed=31.9x    frame=16622 fps=767 q=-0.0 size=N/A time=00:11:33.27 bitrate=N/A speed=  32x    frame=16893 fps=762 q=-0.0 size=N/A time=00:11:44.57 bitrate=N/A speed=31.8x    frame=17178 fps=757 q=-0.0 size=N/A time=00:11:56.46 bitrate=N/A speed=31.6x    frame=17543 fps=756 q=-0.0 size=N/A time=00:12:11.68 bitrate=N/A speed=31.5x    frame=17952 fps=757 q=-0.0 size=N/A time=00:12:28.74 bitrate=N/A speed=31.6x    frame=18336 fps=756 q=-0.0 size=N/A time=00:12:44.76 bitrate=N/A speed=31.5x    frame=18842 fps=761 q=-0.0 size=N/A time=00:13:05.86 bitrate=N/A speed=31.7x    frame=19340 fps=765 q=-0.0 size=N/A time=00:13:26.63 bitrate=N/A speed=31.9x    frame=19779 fps=767 q=-0.0 size=N/A time=00:13:44.94 bitrate=N/A speed=  32x    frame=20080 fps=763 q=-0.0 size=N/A time=00:13:57.50 bitrate=N/A speed=31.8x    frame=20617 fps=769 q=-0.0 size=N/A time=00:14:19.90 bitrate=N/A speed=32.1x    frame=21091 fps=772 q=-0.0 size=N/A time=00:14:39.67 bitrate=N/A speed=32.2x    frame=21616 fps=776 q=-0.0 size=N/A time=00:15:01.56 bitrate=N/A speed=32.4x    frame=22125 fps=780 q=-0.0 size=N/A time=00:15:22.79 bitrate=N/A speed=32.5x    frame=22702 fps=786 q=-0.0 size=N/A time=00:15:46.86 bitrate=N/A speed=32.8x    frame=23129 fps=787 q=-0.0 size=N/A time=00:16:04.67 bitrate=N/A speed=32.8x    frame=23604 fps=789 q=-0.0 size=N/A time=00:16:24.48 bitrate=N/A speed=32.9x    frame=24239 fps=797 q=-0.0 size=N/A time=00:16:50.96 bitrate=N/A speed=33.2x    frame=24797 fps=801 q=-0.0 size=N/A time=00:17:14.24 bitrate=N/A speed=33.4x    frame=25294 fps=804 q=-0.0 size=N/A time=00:17:34.97 bitrate=N/A speed=33.5x    frame=25809 fps=807 q=-0.0 size=N/A time=00:17:56.45 bitrate=N/A speed=33.7x    frame=26331 fps=810 q=-0.0 size=N/A time=00:18:18.22 bitrate=N/A speed=33.8x    frame=26737 fps=810 q=-0.0 size=N/A time=00:18:35.15 bitrate=N/A speed=33.8x    frame=27238 fps=813 q=-0.0 size=N/A time=00:18:56.05 bitrate=N/A speed=33.9x    frame=27816 fps=817 q=-0.0 size=N/A time=00:19:20.15 bitrate=N/A speed=34.1x    frame=28459 fps=824 q=-0.0 size=N/A time=00:19:46.97 bitrate=N/A speed=34.3x    frame=29081 fps=829 q=-0.0 size=N/A time=00:20:12.92 bitrate=N/A speed=34.6x    frame=29701 fps=834 q=-0.0 size=N/A time=00:20:38.77 bitrate=N/A speed=34.8x    frame=30227 fps=837 q=-0.0 size=N/A time=00:21:00.71 bitrate=N/A speed=34.9x    frame=30805 fps=841 q=-0.0 size=N/A time=00:21:24.82 bitrate=N/A speed=35.1x    frame=31431 fps=846 q=-0.0 size=N/A time=00:21:50.93 bitrate=N/A speed=35.3x    frame=32029 fps=851 q=-0.0 size=N/A time=00:22:15.87 bitrate=N/A speed=35.5x    frame=32648 fps=855 q=-0.0 size=N/A time=00:22:41.69 bitrate=N/A speed=35.7x    frame=33080 fps=855 q=-0.0 size=N/A time=00:22:59.71 bitrate=N/A speed=35.7x    frame=33543 fps=856 q=-0.0 size=N/A time=00:23:19.02 bitrate=N/A speed=35.7x    frame=34020 fps=857 q=-0.0 size=N/A time=00:23:38.91 bitrate=N/A speed=35.7x    frame=34530 fps=858 q=-0.0 size=N/A time=00:24:00.18 bitrate=N/A speed=35.8x    frame=35113 fps=862 q=-0.0 size=N/A time=00:24:24.50 bitrate=N/A speed=35.9x    frame=35632 fps=864 q=-0.0 size=N/A time=00:24:46.15 bitrate=N/A speed=  36x    frame=36049 fps=863 q=-0.0 size=N/A time=00:25:03.54 bitrate=N/A speed=  36x    frame=36530 fps=864 q=-0.0 size=N/A time=00:25:23.60 bitrate=N/A speed=  36x    frame=36969 fps=864 q=-0.0 size=N/A time=00:25:41.91 bitrate=N/A speed=  36x    frame=37360 fps=862 q=-0.0 size=N/A time=00:25:58.22 bitrate=N/A speed=  36x    frame=37694 fps=860 q=-0.0 size=N/A time=00:26:12.15 bitrate=N/A speed=35.9x    frame=38216 fps=862 q=-0.0 size=N/A time=00:26:33.92 bitrate=N/A speed=35.9x    frame=38687 fps=862 q=-0.0 size=N/A time=00:26:53.57 bitrate=N/A speed=  36x    frame=39078 fps=861 q=-0.0 size=N/A time=00:27:09.87 bitrate=N/A speed=35.9x    frame=39492 fps=860 q=-0.0 size=N/A time=00:27:27.14 bitrate=N/A speed=35.9x    frame=40030 fps=863 q=-0.0 size=N/A time=00:27:49.58 bitrate=N/A speed=  36x    frame=40592 fps=865 q=-0.0 size=N/A time=00:28:13.02 bitrate=N/A speed=36.1x    frame=41199 fps=868 q=-0.0 size=N/A time=00:28:38.34 bitrate=N/A speed=36.2x    frame=41706 fps=870 q=-0.0 size=N/A time=00:28:59.48 bitrate=N/A speed=36.3x    frame=42148 fps=869 q=-0.0 size=N/A time=00:29:17.92 bitrate=N/A speed=36.3x    frame=42572 fps=869 q=-0.0 size=N/A time=00:29:35.60 bitrate=N/A speed=36.2x    frame=42930 fps=867 q=-0.0 size=N/A time=00:29:50.53 bitrate=N/A speed=36.2x    frame=43361 fps=867 q=-0.0 size=N/A time=00:30:08.51 bitrate=N/A speed=36.1x    frame=43774 fps=866 q=-0.0 size=N/A time=00:30:25.74 bitrate=N/A speed=36.1x    frame=44104 fps=864 q=-0.0 size=N/A time=00:30:39.50 bitrate=N/A speed=  36x    frame=44466 fps=862 q=-0.0 size=N/A time=00:30:54.60 bitrate=N/A speed=  36x    frame=44828 fps=861 q=-0.0 size=N/A time=00:31:09.70 bitrate=N/A speed=35.9x    frame=45167 fps=859 q=-0.0 size=N/A time=00:31:23.84 bitrate=N/A speed=35.8x    frame=45529 fps=857 q=-0.0 size=N/A time=00:31:38.93 bitrate=N/A speed=35.7x    frame=45964 fps=857 q=-0.0 size=N/A time=00:31:57.08 bitrate=N/A speed=35.7x    frame=46404 fps=857 q=-0.0 size=N/A time=00:32:15.43 bitrate=N/A speed=35.7x    frame=46992 fps=860 q=-0.0 size=N/A time=00:32:39.95 bitrate=N/A speed=35.9x    frame=47532 fps=862 q=-0.0 size=N/A time=00:33:02.48 bitrate=N/A speed=35.9x    frame=48171 fps=865 q=-0.0 size=N/A time=00:33:29.13 bitrate=N/A speed=36.1x    frame=48827 fps=869 q=-0.0 size=N/A time=00:33:56.49 bitrate=N/A speed=36.2x    frame=49398 fps=871 q=-0.0 size=N/A time=00:34:20.30 bitrate=N/A speed=36.3x    frame=49933 fps=872 q=-0.0 size=N/A time=00:34:42.62 bitrate=N/A speed=36.4x    frame=50396 fps=873 q=-0.0 size=N/A time=00:35:01.93 bitrate=N/A speed=36.4x    frame=50954 fps=874 q=-0.0 size=N/A time=00:35:25.20 bitrate=N/A speed=36.5x    frame=51572 fps=877 q=-0.0 size=N/A time=00:35:50.98 bitrate=N/A speed=36.6x    frame=52140 fps=879 q=-0.0 size=N/A time=00:36:14.67 bitrate=N/A speed=36.7x    frame=52449 fps=877 q=-0.0 size=N/A time=00:36:27.56 bitrate=N/A speed=36.6x    frame=52944 fps=877 q=-0.0 size=N/A time=00:36:48.20 bitrate=N/A speed=36.6x    frame=53400 fps=878 q=-0.0 size=N/A time=00:37:07.22 bitrate=N/A speed=36.6x    frame=53874 fps=878 q=-0.0 size=N/A time=00:37:26.99 bitrate=N/A speed=36.6x    frame=54228 fps=876 q=-0.0 size=N/A time=00:37:41.75 bitrate=N/A speed=36.5x    frame=54481 fps=873 q=-0.0 size=N/A time=00:37:52.31 bitrate=N/A speed=36.4x    frame=54841 fps=872 q=-0.0 size=N/A time=00:38:07.32 bitrate=N/A speed=36.4x    frame=55252 fps=871 q=-0.0 size=N/A time=00:38:24.46 bitrate=N/A speed=36.3x    frame=55608 fps=870 q=-0.0 size=N/A time=00:38:39.31 bitrate=N/A speed=36.3x    frame=56183 fps=872 q=-0.0 size=N/A time=00:39:03.29 bitrate=N/A speed=36.3x    frame=56549 fps=870 q=-0.0 size=N/A time=00:39:18.56 bitrate=N/A speed=36.3x    frame=57028 fps=871 q=-0.0 size=N/A time=00:39:38.54 bitrate=N/A speed=36.3x    frame=57487 fps=871 q=-0.0 size=N/A time=00:39:57.68 bitrate=N/A speed=36.3x    frame=57888 fps=870 q=-0.0 size=N/A time=00:40:14.41 bitrate=N/A speed=36.3x    frame=58334 fps=870 q=-0.0 size=N/A time=00:40:33.01 bitrate=N/A speed=36.3x    frame=58735 fps=869 q=-0.0 size=N/A time=00:40:49.73 bitrate=N/A speed=36.3x    frame=59143 fps=869 q=-0.0 size=N/A time=00:41:06.75 bitrate=N/A speed=36.2x    frame=59525 fps=868 q=-0.0 size=N/A time=00:41:22.68 bitrate=N/A speed=36.2x    frame=59980 fps=868 q=-0.0 size=N/A time=00:41:41.66 bitrate=N/A speed=36.2x    frame=60375 fps=867 q=-0.0 size=N/A time=00:41:58.14 bitrate=N/A speed=36.2x    frame=60785 fps=867 q=-0.0 size=N/A time=00:42:15.24 bitrate=N/A speed=36.1x    frame=61194 fps=866 q=-0.0 size=N/A time=00:42:32.29 bitrate=N/A speed=36.1x    frame=61589 fps=866 q=-0.0 size=N/A time=00:42:48.77 bitrate=N/A speed=36.1x    frame=62030 fps=865 q=-0.0 size=N/A time=00:43:07.16 bitrate=N/A speed=36.1x    frame=62418 fps=865 q=-0.0 size=N/A time=00:43:23.35 bitrate=N/A speed=36.1x    frame=62781 fps=863 q=-0.0 size=N/A time=00:43:38.49 bitrate=N/A speed=  36x    frame=63102 fps=862 q=-0.0 size=N/A time=00:43:51.87 bitrate=N/A speed=35.9x    frame=63467 fps=861 q=-0.0 size=N/A time=00:44:07.10 bitrate=N/A speed=35.9x    frame=63832 fps=860 q=-0.0 size=N/A time=00:44:22.32 bitrate=N/A speed=35.9x    frame=64252 fps=859 q=-0.0 size=N/A time=00:44:39.84 bitrate=N/A speed=35.8x    frame=64783 fps=861 q=-0.0 size=N/A time=00:45:01.99 bitrate=N/A speed=35.9x    frame=65077 fps=858 q=-0.0 size=N/A time=00:45:14.25 bitrate=N/A speed=35.8x    frame=65325 fps=856 q=-0.0 size=N/A time=00:45:24.59 bitrate=N/A speed=35.7x    frame=65599 fps=854 q=-0.0 size=N/A time=00:45:36.02 bitrate=N/A speed=35.6x    frame=65919 fps=852 q=-0.0 size=N/A time=00:45:49.37 bitrate=N/A speed=35.5x    frame=66157 fps=850 q=-0.0 size=N/A time=00:45:59.29 bitrate=N/A speed=35.4x    frame=66415 fps=847 q=-0.0 size=N/A time=00:46:10.05 bitrate=N/A speed=35.3x    frame=66790 fps=847 q=-0.0 size=N/A time=00:46:25.69 bitrate=N/A speed=35.3x    frame=67179 fps=846 q=-0.0 size=N/A time=00:46:41.92 bitrate=N/A speed=35.3x    frame=67484 fps=844 q=-0.0 size=N/A time=00:46:54.64 bitrate=N/A speed=35.2x    frame=67876 fps=844 q=-0.0 size=N/A time=00:47:10.99 bitrate=N/A speed=35.2x    frame=68320 fps=844 q=-0.0 size=N/A time=00:47:29.51 bitrate=N/A speed=35.2x    frame=68797 fps=844 q=-0.0 size=N/A time=00:47:49.40 bitrate=N/A speed=35.2x    [Parsed_ssim_10 @ 0000028b12000440] SSIM Y:0.974326 (15.905122) U:0.985493 (18.384187) V:0.986944 (18.841867) All:0.978290 (16.633473)
[out#0/null @ 0000028b060bee80] video:29672KiB audio:540040KiB subtitle:0KiB other streams:0KiB global headers:0KiB muxing overhead: unknown
frame=69054 fps=845 q=-0.0 Lsize=N/A time=00:48:00.12 bitrate=N/A speed=35.3x    
